<svg width="144" height="105" viewBox="0 0 144 105" fill="none" xmlns="http://www.w3.org/2000/svg">
<g clip-path="url(#clip0_58_2098)">
<path d="M144 45.0194C143.71 2.56636 98.0553 -7.35422 56.9347 4.84745C6.9975 19.6638 -1.76539 46.2137 0.263009 61.412C4.3681 92.1529 37.7186 110.009 85.402 103.757C133.08 97.5059 144.081 57.3071 143.995 45.0194" fill="#F7F249"/>
<path d="M25.5158 78.7943L25.8324 68.4595C29.798 68.2981 31.6869 65.9255 31.6869 65.9255L28.2579 57.436C28.2579 57.436 26.2832 58.937 24.566 58.937C23.2084 58.937 21.3839 58.2268 21.3839 55.5638C21.3839 52.3304 24.2226 51.0554 26.6105 51.0554C27.4047 51.0554 35.2876 50.5336 35.2876 62.6276C35.2876 74.7217 25.5158 78.7943 25.5158 78.7943M25.929 44.5188C20.5575 44.5188 12.5566 47.6661 12.5566 56.8819C12.5566 62.3694 15.6046 65.4306 18.9692 67.0123C18.5506 73.0539 18.5291 84.3571 18.5291 84.3571C18.5291 84.3571 18.7652 85.3094 25.5051 85.3094C32.245 85.3094 42.1294 79.2677 42.1294 63.2302C42.1294 47.1926 31.3059 44.5188 25.9344 44.5188" fill="#82D1E4"/>
<path d="M51.6596 70.4662C51.5845 72.9194 50.8601 73.8717 49.6205 73.8717C48.3809 73.8717 48.3219 72.1609 48.3219 70.8966C48.3219 69.6323 48.9766 67.6794 50.2 67.6794C50.7259 67.6794 51.7509 67.6471 51.665 70.4608M49.701 61.6162C47.576 61.6162 43.4387 64.1125 43.4387 71.596C43.4387 79.0794 47.4848 80.107 49.3629 80.1016C53.1568 80.0909 55.2871 75.2489 55.2871 69.331C55.2871 63.4131 51.826 61.6162 49.701 61.6162Z" fill="#82D1E4"/>
<path d="M126.313 59.798C125.09 60.0239 124.752 58.4853 124.537 57.3394C124.328 56.1934 124.639 54.3051 125.841 54.0791C126.356 53.9823 127.36 53.7671 127.746 56.3387C128.079 58.5767 127.531 59.572 126.308 59.798M131.116 54.6548C130.123 49.291 126.421 48.2903 124.333 48.6777C122.246 49.065 118.597 52.0832 119.852 58.8726C121.108 65.6567 125.256 65.8504 127.102 65.5061C130.832 64.8013 132.114 60.0239 131.121 54.6548" fill="#82D1E4"/>
<path d="M67.8868 68.8684C67.4682 64.4192 67.216 58.6465 63.4383 59.1361C59.8162 59.6042 59.8054 62.7837 59.8054 62.7837C59.8054 62.7837 59.7196 60.7608 58.6893 60.5241C57.659 60.2874 55.1905 60.6048 55.2496 60.89C55.2496 60.89 56.4301 66.5765 57.0902 71.1226C57.7448 75.674 56.9292 78.2886 57.6965 78.1541C58.4639 78.0197 61.265 77.2611 61.3884 76.9006C61.5118 76.5455 61.6621 73.3499 61.3884 70.9182C61.1201 68.481 60.0576 65.0164 61.748 64.3116C63.4329 63.6068 63.7281 67.3728 63.9749 71.058C64.2217 74.7433 65.3701 78.9934 67.6936 81.0862C70.0172 83.179 73.1885 83.6793 73.6178 83.5933C75.0667 83.3081 77.3956 80.4783 76.918 79.6336C76.8268 79.4722 73.8969 79.9779 71.1709 77.7883C68.4502 75.5933 68.3 73.3122 67.8814 68.863" fill="#82D1E4"/>
<path d="M74.3583 56.6722C74.3154 57.5115 75.5872 61.1161 75.8662 64.7583C76.1399 68.4005 76.4189 69.6002 75.1632 69.7777C73.9022 69.9553 73.6178 69.2236 73.0383 65.958C72.4587 62.6977 72.0241 57.0488 71.7987 56.8713C71.5733 56.6938 67.8224 56.9305 67.8438 57.2748C67.8438 57.2748 68.2141 64.0589 69.1639 68.04C70.1137 72.0212 71.1333 75.2437 75.3993 74.3776C79.6654 73.5168 79.5849 69.7455 79.6118 66.6036C79.6386 63.4617 79 57.0327 78.1414 56.2096C77.2829 55.3811 74.4066 55.833 74.3637 56.6669" fill="#82D1E4"/>
<path d="M105.552 70.4287C104.902 70.1758 102.654 71.155 98.9407 70.2404C93.1453 68.8093 90.4568 62.3749 90.7681 54.6386C90.8539 52.5135 90.9934 50.5821 91.1276 48.8875C98.066 48.4194 99.327 49.5868 99.869 49.4523C100.524 49.2856 101.763 46.9776 101.447 46.2997C101.211 45.7779 97.6313 43.9756 91.5139 43.9756C91.5998 42.3401 91.5462 41.3071 91.1759 40.9951C90.6929 40.597 87.1298 40.0052 87.0708 40.8176C87.0708 40.8176 86.9313 42.2002 86.781 44.3091C86.2659 44.3791 85.7346 44.4652 85.198 44.562C84.8439 44.6266 84.4897 44.6911 84.1355 44.7611C84.0819 42.4423 84.0443 40.8875 83.9531 40.6669C83.5935 39.8169 83.1052 39.3811 81.3451 39.4995C79.5851 39.6178 78.7587 39.7577 78.8767 41.022C78.8767 41.022 79.0645 42.9964 79.3167 45.7563C70.9563 47.5532 62.1934 49.6514 55.6253 48.6723C47.4903 47.4618 46.8356 41.0758 51.1231 38.6764C52.9959 37.6273 54.1764 37.4175 54.053 37.0193C53.9296 36.6266 53.7042 32.016 53.6989 30.09C53.6989 28.1586 54.0423 26.7706 50.8119 26.7006C47.5815 26.6307 36.1999 28.7235 36.7634 39.4833C37.3268 50.2432 45.6389 56.5646 60.648 55.7791C68.4342 55.3703 72.4964 52.5566 79.7621 50.6467C80.0197 53.4819 80.2773 56.4409 80.4705 58.7489C80.991 65.1187 82.4345 77.5517 88.2567 83.0769C90.6876 85.3849 92.7911 85.8906 93.596 85.8906C94.4009 85.8906 96.0161 83.6848 96.8533 82.3882C97.6152 81.21 98.7368 78.3049 97.6904 78.1166C96.644 77.9283 90.4407 77.8046 87.1084 69.9821C85.1658 65.42 84.538 56.4947 84.2804 49.6837C84.8009 49.5976 85.3375 49.5115 85.8956 49.4362C86.1103 49.4093 86.3088 49.3824 86.5181 49.3555C86.3947 52.9009 86.4054 56.9251 86.8132 60.1261C87.763 67.5504 91.2886 74.0816 97.6635 75.658C100.711 76.4112 104.028 76.5672 104.275 76.2928C105.326 75.1038 106.206 70.6977 105.552 70.4394" fill="#82D1E4"/>
<path d="M96.558 57.802C96.8907 56.6776 97.6473 55.7684 98.9298 55.5209C100.33 55.2519 101.039 56.9143 100.711 57.0381C100.411 57.1564 98.5488 57.9526 96.558 57.7966M100.105 60.4973C103.48 59.9863 104.248 59.0017 104.296 58.4853C104.344 57.9688 104.521 51.0125 98.6132 51.868C92.7051 52.7234 92.0827 60.067 93.7086 63.3971C95.3345 66.7273 97.7225 67.7764 101.291 67.2438C104.672 66.7434 105.729 63.9566 105.643 63.6715C105.552 63.3864 105.348 62.4987 104.548 61.8262C104.205 61.5357 103.48 60.8901 103.26 61.1053C103.04 61.3205 102.718 63.2357 99.8421 63.6285C98.0874 63.8706 96.8531 62.262 96.4829 60.4059C96.9551 60.6103 97.9854 60.8201 100.11 60.4973" fill="#82D1E4"/>
<path d="M115.565 32.1775C115.57 35.1149 112.925 38.0039 109.501 38.8217C109.684 36.9763 109.99 35.2602 110.446 33.7538C112.243 27.8412 115.56 29.0679 115.565 32.1828M110.22 56.2096C109.619 51.8196 109.185 46.8593 109.297 42.3186C119.751 40.4948 119.632 31.4619 119.59 30.1761C119.541 28.7827 118.264 24.8446 113.955 24.8446C110.387 24.8446 106.174 28.4976 105.246 38.8324C98.0928 37.4659 92.716 29.9986 87.0655 23.1768C80.8139 15.6342 73.6501 12.3309 68.0533 13.2186C62.4564 14.1063 56.7576 19.6315 56.7576 27.8466C56.7576 36.0618 64.898 41.5331 68.5684 40.6186C69.8509 40.2958 75.0292 32.0483 73.9077 31.5103C70.5109 29.8695 67.7206 22.0686 73.5482 22.0686C82.2628 22.0686 91.3315 41.829 105.058 42.6145C105.047 43.7389 105.058 44.9117 105.117 46.1653C105.927 63.9567 108.879 69.455 108.879 69.455C108.879 69.455 109.931 71.7845 110.354 72.2095C110.778 72.6399 110.794 73.0649 111.975 72.4247C113.156 71.7845 114.374 71.3218 114.497 71.0851C114.621 70.8484 114.411 69.9445 113.606 68.2337C112.801 66.5175 111.245 63.6662 110.22 56.215" fill="#82D1E4"/>
<path d="M117.829 60.1152C116.45 53.5141 116.547 42.7219 115.871 42.2593C115.195 41.7966 112.721 42.3884 112.587 42.9049C112.453 43.4213 111.943 53.1213 113.993 62.0735C116.043 71.0203 119.316 73.5704 120.255 73.2369C121.194 72.9087 124.086 71.2248 123.893 70.6545C123.7 70.0789 119.203 66.7218 117.824 60.1152" fill="#82D1E4"/>
</g>
<defs>
<clipPath id="clip0_58_2098">
<rect width="144" height="105" fill="white"/>
</clipPath>
</defs>
</svg>
