<?xml version="1.0" encoding="utf-8"?>
<!-- Generator: Adobe Illustrator 26.5.2, SVG Export Plug-In . SVG Version: 6.00 Build 0)  -->
<svg version="1.1" id="Laag_1" xmlns="http://www.w3.org/2000/svg" xmlns:xlink="http://www.w3.org/1999/xlink" x="0px" y="0px"
	 viewBox="0 0 144 105" style="enable-background:new 0 0 144 105;" xml:space="preserve">
<style type="text/css">
	.st0{clip-path:url(#SVGID_00000111869428640717875760000013448987608803989127_);}
	.st1{fill:#F7F249;}
	.st2{fill:#E72C70;}
</style>
<g>
	<defs>
		<rect id="SVGID_1_" y="0" width="144" height="105"/>
	</defs>
	<clipPath id="SVGID_00000139260170387144876280000009666057937917515153_">
		<use xlink:href="#SVGID_1_"  style="overflow:visible;"/>
	</clipPath>
	<g style="clip-path:url(#SVGID_00000139260170387144876280000009666057937917515153_);">
		<path class="st1" d="M144,45C143.7,2.6,98.1-7.4,56.9,4.8C7,19.7-1.8,46.2,0.3,61.4c4.1,30.7,37.5,48.6,85.1,42.3
			C133.1,97.5,144.1,57.3,144,45"/>
		<path class="st2" d="M25.5,78.8l0.3-10.3c4-0.2,5.9-2.5,5.9-2.5l-3.4-8.5c0,0-2,1.5-3.7,1.5c-1.4,0-3.2-0.7-3.2-3.4
			c0-3.2,2.8-4.5,5.2-4.5c0.8,0,8.7-0.5,8.7,11.6C35.3,74.7,25.5,78.8,25.5,78.8 M25.9,44.5c-5.4,0-13.4,3.1-13.4,12.4
			c0,5.5,3,8.5,6.4,10.1c-0.4,6-0.4,17.3-0.4,17.3s0.2,1,7,1s16.6-6,16.6-22.1C42.1,47.2,31.3,44.5,25.9,44.5"/>
		<path class="st2" d="M51.7,70.5c-0.1,2.5-0.8,3.4-2,3.4c-1.2,0-1.3-1.7-1.3-3s0.7-3.2,1.9-3.2C50.7,67.7,51.8,67.6,51.7,70.5
			 M49.7,61.6c-2.1,0-6.3,2.5-6.3,10c0,7.5,4,8.5,5.9,8.5c3.8,0,5.9-4.9,5.9-10.8S51.8,61.6,49.7,61.6z"/>
		<path class="st2" d="M126.3,59.8c-1.2,0.2-1.6-1.3-1.8-2.5c-0.2-1.1,0.1-3,1.3-3.3c0.5-0.1,1.5-0.3,1.9,2.3
			C128.1,58.6,127.5,59.6,126.3,59.8 M131.1,54.7c-1-5.4-4.7-6.4-6.8-6c-2.1,0.4-5.7,3.4-4.5,10.2c1.3,6.8,5.4,7,7.2,6.6
			C130.8,64.8,132.1,60,131.1,54.7"/>
		<path class="st2" d="M67.9,68.9c-0.4-4.4-0.7-10.2-4.4-9.7c-3.6,0.5-3.6,3.6-3.6,3.6s-0.1-2-1.1-2.3c-1-0.2-3.5,0.1-3.4,0.4
			c0,0,1.2,5.7,1.8,10.2c0.7,4.6-0.2,7.2,0.6,7c0.8-0.1,3.6-0.9,3.7-1.3c0.1-0.4,0.3-3.6,0-6c-0.3-2.4-1.3-5.9,0.4-6.6
			c1.7-0.7,2,3.1,2.2,6.7c0.2,3.7,1.4,7.9,3.7,10c2.3,2.1,5.5,2.6,5.9,2.5c1.4-0.3,3.8-3.1,3.3-4c-0.1-0.2-3,0.3-5.7-1.8
			C68.5,75.6,68.3,73.3,67.9,68.9"/>
		<path class="st2" d="M74.4,56.7c0,0.8,1.2,4.4,1.5,8.1c0.3,3.6,0.6,4.8-0.7,5C73.9,70,73.6,69.2,73,66c-0.6-3.3-1-8.9-1.2-9.1
			c-0.2-0.2-4,0.1-4,0.4c0,0,0.4,6.8,1.3,10.8c0.9,4,2,7.2,6.2,6.3c4.3-0.9,4.2-4.6,4.2-7.8c0-3.1-0.6-9.6-1.5-10.4
			C77.3,55.4,74.4,55.8,74.4,56.7"/>
		<path class="st2" d="M105.6,70.4c-0.7-0.3-2.9,0.7-6.6-0.2c-5.8-1.4-8.5-7.9-8.2-15.6c0.1-2.1,0.2-4.1,0.4-5.8
			c6.9-0.5,8.2,0.7,8.7,0.6c0.7-0.2,1.9-2.5,1.6-3.2c-0.2-0.5-3.8-2.3-9.9-2.3c0.1-1.6,0-2.7-0.3-3c-0.5-0.4-4-1-4.1-0.2
			c0,0-0.1,1.4-0.3,3.5c-0.5,0.1-1,0.2-1.6,0.3c-0.4,0.1-0.7,0.1-1.1,0.2c-0.1-2.3-0.1-3.9-0.2-4.1c-0.4-0.9-0.8-1.3-2.6-1.2
			c-1.8,0.1-2.6,0.3-2.5,1.5c0,0,0.2,2,0.4,4.7c-8.4,1.8-17.1,3.9-23.7,2.9c-8.1-1.2-8.8-7.6-4.5-10c1.9-1,3.1-1.3,2.9-1.7
			c-0.1-0.4-0.3-5-0.4-6.9c0-1.9,0.3-3.3-2.9-3.4c-3.2-0.1-14.6,2-14,12.8c0.6,10.8,8.9,17.1,23.9,16.3c7.8-0.4,11.8-3.2,19.1-5.1
			c0.3,2.8,0.5,5.8,0.7,8.1c0.5,6.4,2,18.8,7.8,24.3c2.4,2.3,4.5,2.8,5.3,2.8s2.4-2.2,3.3-3.5c0.8-1.2,1.9-4.1,0.8-4.3
			s-7.2-0.3-10.6-8.1c-1.9-4.6-2.6-13.5-2.8-20.3c0.5-0.1,1.1-0.2,1.6-0.2c0.2,0,0.4-0.1,0.6-0.1c-0.1,3.5-0.1,7.6,0.3,10.8
			c0.9,7.4,4.5,14,10.9,15.5c3,0.8,6.4,0.9,6.6,0.6C105.3,75.1,106.2,70.7,105.6,70.4"/>
		<path class="st2" d="M96.6,57.8c0.3-1.1,1.1-2,2.4-2.3c1.4-0.3,2.1,1.4,1.8,1.5C100.4,57.2,98.5,58,96.6,57.8 M100.1,60.5
			c3.4-0.5,4.1-1.5,4.2-2c0-0.5,0.2-7.5-5.7-6.6c-5.9,0.9-6.5,8.2-4.9,11.5c1.6,3.3,4,4.4,7.6,3.8c3.4-0.5,4.4-3.3,4.4-3.6
			c-0.1-0.3-0.3-1.2-1.1-1.8c-0.3-0.3-1.1-0.9-1.3-0.7c-0.2,0.2-0.5,2.1-3.4,2.5c-1.8,0.2-3-1.4-3.4-3.2C97,60.6,98,60.8,100.1,60.5
			"/>
		<path class="st2" d="M115.6,32.2c0,2.9-2.6,5.8-6.1,6.6c0.2-1.8,0.5-3.6,0.9-5.1C112.2,27.8,115.6,29.1,115.6,32.2 M110.2,56.2
			c-0.6-4.4-1-9.4-0.9-13.9c10.5-1.8,10.3-10.9,10.3-12.1c0-1.4-1.3-5.3-5.6-5.3c-3.6,0-7.8,3.7-8.7,14c-7.2-1.4-12.5-8.8-18.2-15.7
			c-6.3-7.5-13.4-10.8-19-10c-5.6,0.9-11.3,6.4-11.3,14.6c0,8.2,8.1,13.7,11.8,12.8c1.3-0.3,6.5-8.6,5.3-9.1
			c-3.4-1.6-6.2-9.4-0.4-9.4c8.7,0,17.8,19.8,31.5,20.5c0,1.1,0,2.3,0.1,3.6c0.8,17.8,3.8,23.3,3.8,23.3s1.1,2.3,1.5,2.8
			c0.4,0.4,0.4,0.9,1.6,0.2c1.2-0.6,2.4-1.1,2.5-1.3c0.1-0.2-0.1-1.1-0.9-2.9C112.8,66.5,111.2,63.7,110.2,56.2"/>
		<path class="st2" d="M117.8,60.1c-1.4-6.6-1.3-17.4-2-17.9c-0.7-0.5-3.2,0.1-3.3,0.6c-0.1,0.5-0.6,10.2,1.4,19.2
			c2.1,8.9,5.3,11.5,6.3,11.2c0.9-0.3,3.8-2,3.6-2.6C123.7,70.1,119.2,66.7,117.8,60.1"/>
	</g>
</g>
</svg>
